<svg version="1.1" id="Layer_1" xmlns="http://www.w3.org/2000/svg" xmlns:xlink="http://www.w3.org/1999/xlink" x="0px" y="0px" width="100%" viewBox="0 0 1024 1008" enable-background="new 0 0 1024 1008" xml:space="preserve"> <path fill="#000000" opacity="1.000000" stroke="none" d=" M711.332397,735.677124 C703.817749,718.280334 696.463135,701.229553 689.118713,684.174438 C676.381775,654.596985 663.727112,624.983887 650.891724,595.449280 C641.971924,574.924622 633.418274,554.246155 624.303894,533.799988 C611.676514,505.473175 599.766846,476.827087 587.458740,448.357117 C577.249268,424.741577 566.862061,401.202850 556.638550,377.593323 C547.147583,355.675476 537.791382,333.699280 528.332825,311.767365 C522.492310,298.224915 516.553345,284.724915 510.701294,271.187378 C509.524170,268.464325 508.710663,265.574799 507.416718,262.914185 C506.173920,260.358704 504.069611,258.884674 500.980743,259.092926 C497.791290,259.307922 496.482574,261.410461 495.356812,263.991760 C490.314575,275.553070 485.099945,287.039948 480.133850,298.633484 C475.043762,310.516327 470.188477,322.499603 465.196899,334.424866 C460.578491,345.458557 455.955383,356.490570 451.264374,367.493500 C441.375549,390.688141 430.980377,413.663971 421.737122,437.138123 C417.725586,447.325836 412.647675,457.090759 408.543030,467.245300 C399.020569,490.803040 388.515869,513.931885 378.463257,537.257935 C368.413605,560.577087 358.492950,583.951965 348.546112,607.315369 C338.220032,631.569580 327.964600,655.853882 317.611603,680.096619 C311.683685,693.977539 305.566620,707.777771 299.641510,721.659851 C295.483093,731.402710 291.916656,741.419617 287.349274,750.961548 C280.560944,765.143311 275.060913,780.175537 262.846527,791.118835 C258.360718,795.137756 253.322708,797.187988 247.401184,798.401550 C237.913651,800.345886 228.295731,801.460022 218.808395,800.954163 C200.668930,799.987000 182.521118,800.757507 164.422195,799.890381 C150.464859,799.221680 146.490143,789.299072 149.651031,777.411316 C152.598923,766.324707 158.262100,756.229065 162.803619,745.730530 C169.262253,730.800232 175.907166,715.950562 182.434418,701.049805 C192.678711,677.663513 203.227722,654.402588 212.989853,630.816345 C218.772339,616.845276 225.224670,603.186218 231.086792,589.271240 C239.259872,569.870605 246.899460,550.231689 255.812607,531.160767 C264.749664,512.038635 273.048859,492.632690 281.056061,473.137634 C291.330688,448.122284 302.732758,423.606079 313.015533,398.610077 C322.110474,376.501556 332.194733,354.835602 341.688416,332.907135 C353.826172,304.871338 366.445068,277.036835 378.139008,248.818192 C386.848846,227.800491 396.707642,207.284668 405.055145,186.126862 C412.440002,167.408966 420.788910,149.132080 429.541595,131.035614 C434.428223,120.932350 443.471863,116.268852 453.844391,113.744888 C481.205597,107.087059 509.063477,110.142044 536.682678,110.339561 C548.630127,110.424995 561.249634,112.872383 569.233337,124.283897 C573.739868,130.725281 577.431580,137.605881 580.578186,144.757431 C586.461548,158.128647 592.274658,171.536514 597.792542,185.061508 C607.141418,207.976807 617.550659,230.423157 627.395447,253.115570 C636.835449,274.874603 646.676880,296.468536 655.718750,318.390564 C665.666504,342.509033 676.697083,366.131714 687.207764,389.991821 C695.167236,408.060425 702.529175,426.398804 710.780334,444.330292 C718.068909,460.170105 724.836609,476.226654 731.873962,492.169861 C742.996399,517.368103 754.094177,542.577087 765.204834,567.780457 C773.851196,587.393677 782.943481,606.825012 791.028320,626.666931 C799.558167,647.601135 809.031311,668.107910 818.094055,688.796021 C829.027893,713.755188 839.308960,739.013000 851.526550,763.406067 C855.955383,772.248657 858.133850,781.320984 852.937195,790.923828 C850.815491,794.844604 847.729797,797.032288 843.838257,798.010254 C838.695251,799.302795 833.450317,800.133728 828.051941,800.100159 C806.555420,799.966553 785.035522,800.603638 763.570068,799.772461 C753.470154,799.381409 742.496033,797.797607 736.214661,788.190430 C731.516052,781.004211 727.319580,773.366333 724.078064,765.316162 C720.107300,755.455261 714.804871,746.166504 711.332397,735.677124 z"/> <path fill="#000000" opacity="1.000000" stroke="none" d=" M484.374756,655.197021 C474.252930,653.430725 472.684998,650.880188 472.004456,640.457153 C471.072876,626.189453 471.788422,611.815308 471.762512,597.486877 C471.751007,591.132202 471.010773,590.329041 464.533203,590.305359 C449.705109,590.251160 434.876556,590.332703 420.048218,590.314819 C411.803253,590.304871 406.999939,585.596069 406.950073,577.381470 C406.879303,565.719177 407.285858,554.042114 406.830627,542.397095 C406.292053,528.620117 409.619843,527.000061 423.889740,525.984375 C437.318787,525.028503 450.866425,525.768250 464.361603,525.699402 C470.941925,525.665833 471.772980,524.787415 471.786713,518.089233 C471.813385,505.093597 471.751801,492.097687 471.825897,479.102448 C471.841400,476.379761 470.934143,473.903015 470.474792,471.312286 C469.526978,465.966797 474.282440,460.326843 481.052094,459.584778 C493.651093,458.203705 506.522736,457.679169 518.933533,459.472626 C531.122864,461.234009 533.752991,466.280060 534.426575,480.591736 C535.005798,492.899170 532.466187,505.124969 533.008057,517.477051 C533.346985,525.205688 533.515564,525.714111 541.281677,525.760498 C554.776672,525.841187 568.272949,525.876221 581.767456,525.773804 C585.198914,525.747803 588.361755,526.415649 591.432556,527.811340 C595.253174,529.547791 597.373535,532.216370 597.320801,536.710876 C597.174072,549.204956 597.282715,561.701904 597.279236,574.197754 C597.276367,584.439514 591.741394,590.055115 581.244507,590.154480 C567.916687,590.280701 554.587036,590.204651 541.258179,590.235657 C533.603271,590.253479 533.224548,590.961792 532.982666,598.466797 C532.510010,613.129639 534.404846,627.698547 534.356934,642.335876 C534.330688,650.352905 529.922180,655.014099 521.816345,655.105225 C509.488495,655.243774 497.158325,655.178772 484.374756,655.197021 z"/> </svg>